<?xml version="1.0" encoding="utf-8"?>
<!-- Generator: Adobe Illustrator 23.0.3, SVG Export Plug-In . SVG Version: 6.00 Build 0)  -->
<svg version="1.1" xmlns="http://www.w3.org/2000/svg" xmlns:xlink="http://www.w3.org/1999/xlink" x="0px" y="0px"
	 viewBox="0 0 100 100" style="enable-background:new 0 0 100 100;" xml:space="preserve">
<style type="text/css">
	.st0{fill-rule:evenodd;clip-rule:evenodd;fill:#FFFFFF;}
	.st1{fill-rule:evenodd;clip-rule:evenodd;fill:#4640DE;}
</style>
<g id="Layer_2">
</g>
<g id="Layer_1">
	<circle class="st0" cx="47.5" cy="47.5" r="40.5"/>
	<path class="st1" d="M50,100c27.61,0,50-22.39,50-50S77.61,0,50,0C22.39,0,0,22.39,0,50S22.39,100,50,100z M65.6,23.29
		c0.76-2.7-1.86-4.29-4.25-2.59L27.98,44.47C25.39,46.32,25.8,50,28.6,50h8.79v-0.07h17.12l-13.95,4.92L34.4,76.71
		c-0.76,2.7,1.86,4.29,4.25,2.59l33.37-23.77C74.61,53.68,74.2,50,71.4,50H58.08L65.6,23.29z"/>
</g>
</svg>
